<?xml version="1.0" encoding="utf-8"?>
<!-- Generator: Adobe Illustrator 27.5.0, SVG Export Plug-In . SVG Version: 6.00 Build 0)  -->
<svg version="1.1" xmlns="http://www.w3.org/2000/svg" xmlns:xlink="http://www.w3.org/1999/xlink" x="0px" y="0px"
	 viewBox="0 0 1920 480" style="enable-background:new 0 0 1920 480;" xml:space="preserve">
<g id="BACKGROUND_copia">
	<linearGradient id="SVGID_1_" gradientUnits="userSpaceOnUse" x1="616.0769" y1="835.6923" x2="1303.9231" y2="-355.6923">
		<stop  offset="0.0363" style="stop-color:#3D0081"/>
		<stop  offset="0.8631" style="stop-color:#2E0061"/>
	</linearGradient>
	<rect y="0" style="fill:url(#SVGID_1_);" width="1920" height="480"/>
</g>
<g id="OBJECTS_1_">
	<g>
		<g>
			
				<linearGradient id="SVGID_00000055708223495582550440000014036327784170554753_" gradientUnits="userSpaceOnUse" x1="622.9033" y1="240" x2="1920" y2="240">
				<stop  offset="0.2151" style="stop-color:#2E0061"/>
				<stop  offset="0.6769" style="stop-color:#292D52"/>
			</linearGradient>
			<path style="fill:url(#SVGID_00000055708223495582550440000014036327784170554753_);" d="M622.903,480
				c0,0,64.907-230.396,393.384-115.198s516.697,30.108,502.219-136.896S1659.205,0,1659.205,0H1920v480H622.903z"/>
			
				<linearGradient id="SVGID_00000118357076716600252820000005391168873398411931_" gradientUnits="userSpaceOnUse" x1="0" y1="240" x2="1297.0967" y2="240">
				<stop  offset="0.2151" style="stop-color:#2E0061"/>
				<stop  offset="0.6769" style="stop-color:#292D52"/>
			</linearGradient>
			<path style="fill:url(#SVGID_00000118357076716600252820000005391168873398411931_);" d="M1297.097,0
				c0,0-64.907,230.396-393.384,115.198S387.016,85.09,401.493,252.094C415.971,419.099,260.795,480,260.795,480H0V0H1297.097z"/>
		</g>
		<g>
			<g>
				<g>
					<g>
						<path style="opacity:0.4;fill:#424242;" d="M404.057,0c0,0,18.544,123.78-141.609,118.103
							c-160.154-5.678-161.839,85.316-136.552,173s7.826,200.171-115.781,185.23V0H404.057z"/>
						
							<linearGradient id="SVGID_00000181052962635478703450000003490204228642734976_" gradientUnits="userSpaceOnUse" x1="1176.4244" y1="523.7411" x2="1571.0223" y2="523.7411" gradientTransform="matrix(-1 0 0 -1 1571.0223 762.5801)">
							<stop  offset="0" style="stop-color:#FF8201"/>
							<stop  offset="0.4973" style="stop-color:#FF9800"/>
							<stop  offset="1" style="stop-color:#FFBF03"/>
						</linearGradient>
						<path style="fill:url(#SVGID_00000181052962635478703450000003490204228642734976_);" d="M393.942,0
							c0,0,18.544,123.78-141.609,118.103c-160.154-5.678-161.84,85.316-136.552,173S123.607,491.273,0,476.332V0H393.942z"/>
					</g>
					<g>
						<path style="opacity:0.4;fill:#424242;" d="M571.565,480c0,0-6.316-96.692-149.933-70.934
							c-143.617,25.759-225.717,18.461-242.137-95.729C168.478,236.726,74.292,176.663,0,235.045V480H571.565z"/>
						
							<linearGradient id="SVGID_00000065780162441545662960000004043753167695528075_" gradientUnits="userSpaceOnUse" x1="2727.0247" y1="803.2984" x2="3298.5894" y2="803.2984" gradientTransform="matrix(-1 0 0 1 3298.5894 -456.5891)">
							<stop  offset="0" style="stop-color:#7D7AED"/>
							<stop  offset="0.4973" style="stop-color:#76A0EB"/>
							<stop  offset="1" style="stop-color:#6FCCE6"/>
						</linearGradient>
						<path style="fill:url(#SVGID_00000065780162441545662960000004043753167695528075_);" d="M571.565,480
							c0,0-11.977-86.66-155.594-60.901c-143.617,25.759-225.717,18.461-242.137-95.729C162.817,246.759,74.292,176.663,0,235.045
							V480H571.565z"/>
					</g>
					<g>
						<path style="opacity:0.4;fill:#424242;" d="M246.255,0c0,0,15.276,84.628-80.92,98.527
							c-96.196,13.898-109.682,79.194-75.966,166.24c33.717,87.046,2.769,188.195-80.378,166.28V0H246.255z"/>
						
							<linearGradient id="SVGID_00000165949692843129417620000002696248622553514408_" gradientUnits="userSpaceOnUse" x1="1332.8708" y1="545.5411" x2="1571.0223" y2="545.5411" gradientTransform="matrix(-1 0 0 -1 1571.0223 762.5801)">
							<stop  offset="0" style="stop-color:#8F005E"/>
							<stop  offset="0.4973" style="stop-color:#BD0055"/>
							<stop  offset="1" style="stop-color:#E4004B"/>
						</linearGradient>
						<path style="fill:url(#SVGID_00000165949692843129417620000002696248622553514408_);" d="M237.264,0
							c0,0,15.276,84.628-80.92,98.527c-96.196,13.898-109.682,79.194-75.966,166.24C114.095,351.812,83.147,452.962,0,431.046V0
							H237.264z"/>
					</g>
				</g>
				<g>
					<g>
						<path style="opacity:0.4;fill:#424242;" d="M1515.943,480c0,0-18.544-123.78,141.609-118.102
							c160.154,5.678,161.839-85.317,136.552-173c-25.287-87.683-7.826-200.171,115.781-185.23V480H1515.943z"/>
						
							<linearGradient id="SVGID_00000024721249123108706930000011390797301229447612_" gradientUnits="userSpaceOnUse" x1="614.0241" y1="517.7087" x2="1008.622" y2="517.7087" gradientTransform="matrix(1 0 0 1 911.378 -276.5477)">
							<stop  offset="0" style="stop-color:#FF8201"/>
							<stop  offset="0.4973" style="stop-color:#FF9800"/>
							<stop  offset="1" style="stop-color:#FFBF03"/>
						</linearGradient>
						<path style="fill:url(#SVGID_00000024721249123108706930000011390797301229447612_);" d="M1526.058,480
							c0,0-18.544-123.78,141.61-118.102c160.154,5.678,161.839-85.317,136.552-173c-25.287-87.683-7.826-200.171,115.781-185.23
							V480H1526.058z"/>
					</g>
					<g>
						<path style="opacity:0.4;fill:#424242;" d="M1348.435,0c0,0,6.316,96.692,149.933,70.934
							c143.617-25.759,225.717-18.461,242.137,95.729c11.016,76.611,105.203,136.674,179.495,78.292V0H1348.435z"/>
						
							<linearGradient id="SVGID_00000052826085104523419690000010671030270792224665_" gradientUnits="userSpaceOnUse" x1="2164.6243" y1="809.3308" x2="2736.189" y2="809.3308" gradientTransform="matrix(1 0 0 -1 -816.189 942.6215)">
							<stop  offset="0" style="stop-color:#7D7AED"/>
							<stop  offset="0.4973" style="stop-color:#76A0EB"/>
							<stop  offset="1" style="stop-color:#6FCCE6"/>
						</linearGradient>
						<path style="fill:url(#SVGID_00000052826085104523419690000010671030270792224665_);" d="M1348.435,0
							c0,0,11.977,86.66,155.594,60.901c143.617-25.759,225.717-18.461,242.137,95.729c11.016,76.611,99.542,146.707,173.834,88.324
							V0H1348.435z"/>
					</g>
					<g>
						<path style="opacity:0.4;fill:#424242;" d="M1673.745,480c0,0-15.276-84.628,80.92-98.527
							c96.196-13.898,109.682-79.195,75.966-166.24c-33.717-87.046-2.769-188.195,80.378-166.279V480H1673.745z"/>
						
							<linearGradient id="SVGID_00000141449641784102438820000006948739183169138851_" gradientUnits="userSpaceOnUse" x1="770.4706" y1="539.5087" x2="1008.622" y2="539.5087" gradientTransform="matrix(1 0 0 1 911.378 -276.5477)">
							<stop  offset="0" style="stop-color:#8F005E"/>
							<stop  offset="0.4973" style="stop-color:#BD0055"/>
							<stop  offset="1" style="stop-color:#E4004B"/>
						</linearGradient>
						<path style="fill:url(#SVGID_00000141449641784102438820000006948739183169138851_);" d="M1682.736,480
							c0,0-15.276-84.628,80.92-98.527c96.196-13.898,109.682-79.195,75.966-166.24c-33.717-87.046-2.769-188.195,80.378-166.279
							V480H1682.736z"/>
					</g>
				</g>
			</g>
			<g>
				<g>
					<defs>
						<rect id="SVGID_00000002381320801376846560000007415857771265685647_" y="0" width="1920" height="480"/>
					</defs>
					<clipPath id="SVGID_00000084531356660211328320000003848759836860580485_">
						<use xlink:href="#SVGID_00000002381320801376846560000007415857771265685647_"  style="overflow:visible;"/>
					</clipPath>
					<g style="clip-path:url(#SVGID_00000084531356660211328320000003848759836860580485_);">
						<g>
							<g>
								<g>
									<g>
										<path style="fill:#FEFEFE;" d="M-93.008,497.269c-7.36-49.678,25.274-97.61,75.939-107.803
											c48.521-9.762,97.17,19.833,110.8,67.413c14.166,49.453-13.079,100.15-60.092,116.714
											c-4.553,1.604-7.153,6.391-6.018,11.083v0c1.312,5.424,7.034,8.543,12.297,6.689
											c56.325-19.841,88.945-80.62,71.88-139.864c-16.295-56.571-73.867-91.861-131.669-80.695
											c-61.148,11.812-100.636,69.449-91.787,129.199c0.812,5.485,6.169,9.095,11.558,7.791l0,0
											C-95.367,506.651-92.294,502.086-93.008,497.269z"/>
									</g>
									<g>
										<path style="fill:#FEFEFE;" d="M426.32-19.445c-7.36-49.678,25.274-97.61,75.939-107.803
											c48.521-9.762,97.17,19.833,110.8,67.413c14.166,49.453-13.079,100.15-60.092,116.714
											c-4.553,1.604-7.153,6.391-6.018,11.083l0,0c1.312,5.424,7.034,8.543,12.297,6.689
											c56.325-19.841,88.945-80.62,71.88-139.864c-16.294-56.571-73.867-91.861-131.669-80.695
											c-61.148,11.812-100.636,69.449-91.787,129.199c0.812,5.485,6.169,9.094,11.558,7.791l0,0
											C423.96-10.063,427.034-14.628,426.32-19.445z"/>
									</g>
								</g>
								<g>
									<g>
										<path style="fill:#FEFEFE;" d="M1990.329-19.59c7.36,49.678-25.274,97.61-75.938,107.803
											c-48.521,9.762-97.17-19.833-110.8-67.413c-14.166-49.453,13.079-100.15,60.092-116.714
											c4.553-1.604,7.153-6.391,6.018-11.083l0,0c-1.312-5.424-7.034-8.543-12.297-6.689
											c-56.325,19.841-88.944,80.62-71.88,139.864c16.295,56.571,73.867,91.861,131.669,80.695
											c61.148-11.812,100.636-69.449,91.787-129.199c-0.812-5.485-6.169-9.094-11.558-7.791l0,0
											C1992.688-28.972,1989.615-24.408,1990.329-19.59z"/>
									</g>
									<g>
										<path style="fill:#FEFEFE;" d="M1471.001,497.123c7.36,49.678-25.274,97.61-75.939,107.803
											c-48.521,9.762-97.17-19.833-110.8-67.413c-14.166-49.453,13.079-100.15,60.092-116.714
											c4.553-1.604,7.153-6.391,6.018-11.083h0c-1.312-5.424-7.034-8.543-12.297-6.689
											c-56.325,19.841-88.944,80.62-71.88,139.864c16.295,56.571,73.867,91.861,131.669,80.695
											c61.148-11.812,100.636-69.449,91.787-129.199c-0.812-5.485-6.169-9.095-11.558-7.791l0,0
											C1473.361,487.741,1470.288,492.306,1471.001,497.123z"/>
									</g>
								</g>
							</g>
						</g>
					</g>
				</g>
				<g>
					<g>
						<g>
							<g>
								
									<linearGradient id="SVGID_00000084524468075109780740000014519970952034017197_" gradientUnits="userSpaceOnUse" x1="636.7048" y1="-308.8802" x2="679.6395" y2="-308.8802" gradientTransform="matrix(-0.0669 -0.9978 0.9978 -0.0669 624.8865 998.2347)">
									<stop  offset="0" style="stop-color:#8F005E"/>
									<stop  offset="0.4973" style="stop-color:#BD0055"/>
									<stop  offset="1" style="stop-color:#E4004B"/>
								</linearGradient>
								
									<circle style="fill:url(#SVGID_00000084524468075109780740000014519970952034017197_);" cx="272.654" cy="362.175" r="21.468"/>
								
									<linearGradient id="SVGID_00000039119479648813286650000014974292195262778505_" gradientUnits="userSpaceOnUse" x1="653.6961" y1="-311.5516" x2="675.499" y2="-311.5516" gradientTransform="matrix(-0.0669 -0.9978 0.9978 -0.0669 624.8865 998.2347)">
									<stop  offset="0" style="stop-color:#FFFFFF;stop-opacity:0"/>
									<stop  offset="1" style="stop-color:#FFFFFF"/>
								</linearGradient>
								<path style="opacity:0.39;fill:url(#SVGID_00000039119479648813286650000014974292195262778505_);" d="M254.819,363.371
									c0,0,0.066-17.666,16.675-18.481c4.081-0.2,11.326,0.298,12.741,5.233c1.997,6.964-7.32,5.008-11.032,5.439
									c-6.679,0.776-6.346,6.52-10.233,10.196C259.792,368.765,255.442,368.078,254.819,363.371z"/>
							</g>
							<g>
								
									<linearGradient id="SVGID_00000059309735246876620910000012912228367526339503_" gradientUnits="userSpaceOnUse" x1="793.633" y1="1079.3641" x2="836.5678" y2="1079.3641" gradientTransform="matrix(-0.0669 -0.9978 0.9978 -0.0669 624.8865 998.2347)">
									<stop  offset="0" style="stop-color:#8F005E"/>
									<stop  offset="0.4973" style="stop-color:#BD0055"/>
									<stop  offset="1" style="stop-color:#E4004B"/>
								</linearGradient>
								
									<circle style="fill:url(#SVGID_00000059309735246876620910000012912228367526339503_);" cx="1647.346" cy="112.718" r="21.468"/>
								
									<linearGradient id="SVGID_00000074434397597620025170000011236657404208010918_" gradientUnits="userSpaceOnUse" x1="810.6244" y1="1076.6927" x2="832.4272" y2="1076.6927" gradientTransform="matrix(-0.0669 -0.9978 0.9978 -0.0669 624.8865 998.2347)">
									<stop  offset="0" style="stop-color:#FFFFFF;stop-opacity:0"/>
									<stop  offset="1" style="stop-color:#FFFFFF"/>
								</linearGradient>
								<path style="opacity:0.39;fill:url(#SVGID_00000074434397597620025170000011236657404208010918_);" d="M1629.511,113.914
									c0,0,0.066-17.666,16.676-18.481c4.081-0.2,11.326,0.298,12.741,5.234c1.997,6.963-7.32,5.008-11.032,5.439
									c-6.679,0.776-6.346,6.52-10.233,10.196C1634.484,119.308,1630.134,118.622,1629.511,113.914z"/>
							</g>
						</g>
						<g>
							<g>
								<g>
									<g>
										<g>
											<path style="fill:#FEFEFE;" d="M1280.711,131.922c1.293,0,2.341,1.048,2.341,2.341c0,1.293-1.048,2.341-2.341,2.341
												s-2.341-1.048-2.341-2.341C1278.37,132.97,1279.418,131.922,1280.711,131.922z"/>
											<path style="fill:#FEFEFE;" d="M1280.711,112.857c1.293,0,2.341,1.048,2.341,2.341s-1.048,2.341-2.341,2.341
												s-2.341-1.048-2.341-2.341S1279.418,112.857,1280.711,112.857z"/>
											<path style="fill:#FEFEFE;" d="M1280.711,93.791c1.293,0,2.341,1.048,2.341,2.341s-1.048,2.341-2.341,2.341
												s-2.341-1.048-2.341-2.341S1279.418,93.791,1280.711,93.791z"/>
											<path style="fill:#FEFEFE;" d="M1280.711,74.726c1.293,0,2.341,1.048,2.341,2.341s-1.048,2.341-2.341,2.341
												s-2.341-1.048-2.341-2.341S1279.418,74.726,1280.711,74.726z"/>
											<path style="fill:#FEFEFE;" d="M1280.711,55.66c1.293,0,2.341,1.048,2.341,2.341s-1.048,2.341-2.341,2.341
												s-2.341-1.048-2.341-2.341S1279.418,55.66,1280.711,55.66z"/>
											<path style="fill:#FEFEFE;" d="M1280.711,36.595c1.293,0,2.341,1.048,2.341,2.341c0,1.293-1.048,2.341-2.341,2.341
												s-2.341-1.048-2.341-2.341C1278.37,37.643,1279.418,36.595,1280.711,36.595z"/>
										</g>
										<g>
											<path style="fill:#FEFEFE;" d="M1291.08,122.389c1.293,0,2.341,1.048,2.341,2.341c0,1.293-1.048,2.341-2.341,2.341
												s-2.341-1.048-2.341-2.341C1288.739,123.438,1289.787,122.389,1291.08,122.389z"/>
											<circle style="fill:#FEFEFE;" cx="1291.08" cy="105.665" r="2.341"/>
											<circle style="fill:#FEFEFE;" cx="1291.08" cy="86.6" r="2.341"/>
											<circle style="fill:#FEFEFE;" cx="1291.08" cy="67.534" r="2.341"/>
											<path style="fill:#FEFEFE;" d="M1291.08,46.127c1.293,0,2.341,1.048,2.341,2.341c0,1.293-1.048,2.341-2.341,2.341
												s-2.341-1.048-2.341-2.341C1288.739,47.175,1289.787,46.127,1291.08,46.127z"/>
											<path style="fill:#FEFEFE;" d="M1291.08,27.062c1.293,0,2.341,1.048,2.341,2.341c0,1.293-1.048,2.341-2.341,2.341
												s-2.341-1.048-2.341-2.341C1288.739,28.11,1289.787,27.062,1291.08,27.062z"/>
										</g>
									</g>
									<g>
										<g>
											
												<ellipse transform="matrix(0.1607 -0.987 0.987 0.1607 959.7567 1397.131)" style="fill:#FEFEFE;" cx="1301.341" cy="134.264" rx="2.341" ry="2.341"/>
											
												<ellipse transform="matrix(0.1607 -0.987 0.987 0.1607 978.5745 1381.1284)" style="fill:#FEFEFE;" cx="1301.341" cy="115.198" rx="2.341" ry="2.341"/>
											<path style="fill:#FEFEFE;" d="M1301.341,93.791c1.293,0,2.341,1.048,2.341,2.341s-1.048,2.341-2.341,2.341
												s-2.341-1.048-2.341-2.341S1300.047,93.791,1301.341,93.791z"/>
											<path style="fill:#FEFEFE;" d="M1301.341,74.726c1.293,0,2.341,1.048,2.341,2.341s-1.048,2.341-2.341,2.341
												s-2.341-1.048-2.341-2.341S1300.047,74.726,1301.341,74.726z"/>
											
												<ellipse transform="matrix(0.1607 -0.987 0.987 0.1607 1035.0282 1333.1207)" style="fill:#FEFEFE;" cx="1301.341" cy="58.001" rx="2.341" ry="2.341"/>
											
												<ellipse transform="matrix(0.1607 -0.987 0.987 0.1607 1053.8461 1317.1182)" style="fill:#FEFEFE;" cx="1301.341" cy="38.936" rx="2.341" ry="2.341"/>
										</g>
										<g>
											<path style="fill:#FEFEFE;" d="M1311.71,122.389c1.293,0,2.341,1.048,2.341,2.341c0,1.293-1.048,2.341-2.341,2.341
												s-2.341-1.048-2.341-2.341C1309.368,123.438,1310.417,122.389,1311.71,122.389z"/>
											
												<ellipse transform="matrix(0.1606 -0.987 0.987 0.1606 996.6931 1383.363)" style="fill:#FEFEFE;" cx="1311.71" cy="105.665" rx="2.341" ry="2.341"/>
											
												<ellipse transform="matrix(0.1606 -0.987 0.987 0.1606 1015.5109 1367.3604)" style="fill:#FEFEFE;" cx="1311.71" cy="86.6" rx="2.341" ry="2.341"/>
											
												<ellipse transform="matrix(0.1606 -0.987 0.987 0.1606 1034.3289 1351.3577)" style="fill:#FEFEFE;" cx="1311.71" cy="67.534" rx="2.341" ry="2.341"/>
											<path style="fill:#FEFEFE;" d="M1311.71,46.127c1.293,0,2.341,1.048,2.341,2.341c0,1.293-1.048,2.341-2.341,2.341
												s-2.341-1.048-2.341-2.341C1309.368,47.175,1310.417,46.127,1311.71,46.127z"/>
											<path style="fill:#FEFEFE;" d="M1311.71,27.062c1.293,0,2.341,1.048,2.341,2.341c0,1.293-1.048,2.341-2.341,2.341
												s-2.341-1.048-2.341-2.341C1309.368,28.11,1310.417,27.062,1311.71,27.062z"/>
										</g>
									</g>
								</g>
								<g>
									<g>
										<g>
											<path style="fill:#FEFEFE;" d="M1616.731,325.575c0-1.293,1.048-2.341,2.341-2.341c1.293,0,2.341,1.048,2.341,2.341
												c0,1.293-1.048,2.341-2.341,2.341C1617.779,327.917,1616.731,326.868,1616.731,325.575z"/>
											<path style="fill:#FEFEFE;" d="M1597.665,325.575c0-1.293,1.048-2.341,2.341-2.341c1.293,0,2.341,1.048,2.341,2.341
												c0,1.293-1.048,2.341-2.341,2.341C1598.713,327.917,1597.665,326.868,1597.665,325.575z"/>
											<path style="fill:#FEFEFE;" d="M1578.599,325.575c0-1.293,1.048-2.341,2.341-2.341s2.341,1.048,2.341,2.341
												c0,1.293-1.048,2.341-2.341,2.341S1578.599,326.868,1578.599,325.575z"/>
											<path style="fill:#FEFEFE;" d="M1559.534,325.575c0-1.293,1.048-2.341,2.341-2.341s2.341,1.048,2.341,2.341
												c0,1.293-1.048,2.341-2.341,2.341S1559.534,326.868,1559.534,325.575z"/>
											<path style="fill:#FEFEFE;" d="M1540.469,325.575c0-1.293,1.048-2.341,2.341-2.341s2.341,1.048,2.341,2.341
												c0,1.293-1.048,2.341-2.341,2.341S1540.469,326.868,1540.469,325.575z"/>
											<path style="fill:#FEFEFE;" d="M1521.403,325.575c0-1.293,1.048-2.341,2.341-2.341c1.293,0,2.341,1.048,2.341,2.341
												c0,1.293-1.048,2.341-2.341,2.341C1522.451,327.917,1521.403,326.868,1521.403,325.575z"/>
										</g>
										<g>
											<circle style="fill:#FEFEFE;" cx="1609.539" cy="315.206" r="2.341"/>
											<path style="fill:#FEFEFE;" d="M1588.132,315.206c0-1.293,1.048-2.341,2.341-2.341c1.293,0,2.341,1.048,2.341,2.341
												c0,1.293-1.048,2.341-2.341,2.341C1589.181,317.548,1588.132,316.499,1588.132,315.206z"/>
											<path style="fill:#FEFEFE;" d="M1569.067,315.206c0-1.293,1.048-2.341,2.341-2.341c1.293,0,2.341,1.048,2.341,2.341
												c0,1.293-1.048,2.341-2.341,2.341C1570.115,317.548,1569.067,316.499,1569.067,315.206z"/>
											<circle style="fill:#FEFEFE;" cx="1552.343" cy="315.206" r="2.341"/>
											<circle style="fill:#FEFEFE;" cx="1533.277" cy="315.206" r="2.341"/>
											<circle style="fill:#FEFEFE;" cx="1514.212" cy="315.206" r="2.341"/>
										</g>
									</g>
									<g>
										<g>
											<path style="fill:#FEFEFE;" d="M1616.731,304.946c0-1.293,1.048-2.341,2.341-2.341c1.293,0,2.341,1.048,2.341,2.341
												c0,1.293-1.048,2.341-2.341,2.341C1617.779,307.287,1616.731,306.239,1616.731,304.946z"/>
											<path style="fill:#FEFEFE;" d="M1597.665,304.946c0-1.293,1.048-2.341,2.341-2.341c1.293,0,2.341,1.048,2.341,2.341
												c0,1.293-1.048,2.341-2.341,2.341C1598.713,307.287,1597.665,306.239,1597.665,304.946z"/>
											<path style="fill:#FEFEFE;" d="M1578.599,304.946c0-1.293,1.048-2.341,2.341-2.341s2.341,1.048,2.341,2.341
												c0,1.293-1.048,2.341-2.341,2.341S1578.599,306.239,1578.599,304.946z"/>
											<path style="fill:#FEFEFE;" d="M1559.534,304.946c0-1.293,1.048-2.341,2.341-2.341s2.341,1.048,2.341,2.341
												c0,1.293-1.048,2.341-2.341,2.341S1559.534,306.239,1559.534,304.946z"/>
											<path style="fill:#FEFEFE;" d="M1540.469,304.946c0-1.293,1.048-2.341,2.341-2.341s2.341,1.048,2.341,2.341
												c0,1.293-1.048,2.341-2.341,2.341S1540.469,306.239,1540.469,304.946z"/>
											<path style="fill:#FEFEFE;" d="M1521.403,304.946c0-1.293,1.048-2.341,2.341-2.341c1.293,0,2.341,1.048,2.341,2.341
												c0,1.293-1.048,2.341-2.341,2.341C1522.451,307.287,1521.403,306.239,1521.403,304.946z"/>
										</g>
										<g>
											<circle style="fill:#FEFEFE;" cx="1609.539" cy="294.577" r="2.341"/>
											<path style="fill:#FEFEFE;" d="M1588.132,294.577c0-1.293,1.048-2.341,2.341-2.341c1.293,0,2.341,1.048,2.341,2.341
												s-1.048,2.341-2.341,2.341C1589.181,296.918,1588.132,295.87,1588.132,294.577z"/>
											<path style="fill:#FEFEFE;" d="M1569.067,294.577c0-1.293,1.048-2.341,2.341-2.341c1.293,0,2.341,1.048,2.341,2.341
												s-1.048,2.341-2.341,2.341C1570.115,296.918,1569.067,295.87,1569.067,294.577z"/>
											<circle style="fill:#FEFEFE;" cx="1552.343" cy="294.577" r="2.341"/>
											<circle style="fill:#FEFEFE;" cx="1533.277" cy="294.577" r="2.341"/>
											<circle style="fill:#FEFEFE;" cx="1514.212" cy="294.577" r="2.341"/>
										</g>
									</g>
								</g>
							</g>
							<g>
								<g>
									<g>
										<g>
											<path style="fill:#FEFEFE;" d="M639.289,348.078c-1.293,0-2.341-1.048-2.341-2.341c0-1.293,1.048-2.341,2.341-2.341
												s2.341,1.048,2.341,2.341C641.63,347.03,640.582,348.078,639.289,348.078z"/>
											<path style="fill:#FEFEFE;" d="M639.289,367.143c-1.293,0-2.341-1.048-2.341-2.341s1.048-2.341,2.341-2.341
												s2.341,1.048,2.341,2.341S640.582,367.143,639.289,367.143z"/>
											<path style="fill:#FEFEFE;" d="M639.289,386.209c-1.293,0-2.341-1.048-2.341-2.341c0-1.293,1.048-2.341,2.341-2.341
												s2.341,1.048,2.341,2.341C641.63,385.161,640.582,386.209,639.289,386.209z"/>
											<path style="fill:#FEFEFE;" d="M639.289,405.274c-1.293,0-2.341-1.048-2.341-2.341s1.048-2.341,2.341-2.341
												s2.341,1.048,2.341,2.341S640.582,405.274,639.289,405.274z"/>
											<path style="fill:#FEFEFE;" d="M639.289,424.34c-1.293,0-2.341-1.048-2.341-2.341s1.048-2.341,2.341-2.341
												s2.341,1.048,2.341,2.341S640.582,424.34,639.289,424.34z"/>
											<path style="fill:#FEFEFE;" d="M639.289,443.405c-1.293,0-2.341-1.048-2.341-2.341c0-1.293,1.048-2.341,2.341-2.341
												s2.341,1.048,2.341,2.341C641.63,442.357,640.582,443.405,639.289,443.405z"/>
										</g>
										<g>
											<path style="fill:#FEFEFE;" d="M628.92,357.611c-1.293,0-2.341-1.048-2.341-2.341c0-1.293,1.048-2.341,2.341-2.341
												s2.341,1.048,2.341,2.341C631.261,356.562,630.213,357.611,628.92,357.611z"/>
											<circle style="fill:#FEFEFE;" cx="628.92" cy="374.335" r="2.341"/>
											<circle style="fill:#FEFEFE;" cx="628.92" cy="393.4" r="2.341"/>
											<circle style="fill:#FEFEFE;" cx="628.92" cy="412.466" r="2.341"/>
											<path style="fill:#FEFEFE;" d="M628.92,433.873c-1.293,0-2.341-1.048-2.341-2.341c0-1.293,1.048-2.341,2.341-2.341
												s2.341,1.048,2.341,2.341C631.261,432.824,630.213,433.873,628.92,433.873z"/>
											<path style="fill:#FEFEFE;" d="M628.92,452.938c-1.293,0-2.341-1.048-2.341-2.341c0-1.293,1.048-2.341,2.341-2.341
												s2.341,1.048,2.341,2.341C631.261,451.89,630.213,452.938,628.92,452.938z"/>
										</g>
									</g>
									<g>
										<g>
											<circle style="fill:#FEFEFE;" cx="618.659" cy="345.737" r="2.341"/>
											<circle style="fill:#FEFEFE;" cx="618.659" cy="364.802" r="2.341"/>
											<path style="fill:#FEFEFE;" d="M618.659,386.209c-1.293,0-2.341-1.048-2.341-2.341c0-1.293,1.048-2.341,2.341-2.341
												c1.293,0,2.341,1.048,2.341,2.341C621.001,385.161,619.953,386.209,618.659,386.209z"/>
											<path style="fill:#FEFEFE;" d="M618.659,405.274c-1.293,0-2.341-1.048-2.341-2.341s1.048-2.341,2.341-2.341
												c1.293,0,2.341,1.048,2.341,2.341S619.953,405.274,618.659,405.274z"/>
											<circle style="fill:#FEFEFE;" cx="618.659" cy="421.999" r="2.341"/>
											<circle style="fill:#FEFEFE;" cx="618.659" cy="441.064" r="2.341"/>
										</g>
										<g>
											<path style="fill:#FEFEFE;" d="M608.29,357.611c-1.293,0-2.341-1.048-2.341-2.341c0-1.293,1.048-2.341,2.341-2.341
												s2.341,1.048,2.341,2.341C610.632,356.562,609.583,357.611,608.29,357.611z"/>
											<circle style="fill:#FEFEFE;" cx="608.29" cy="374.335" r="2.341"/>
											<circle style="fill:#FEFEFE;" cx="608.29" cy="393.4" r="2.341"/>
											<circle style="fill:#FEFEFE;" cx="608.29" cy="412.466" r="2.341"/>
											<path style="fill:#FEFEFE;" d="M608.29,433.873c-1.293,0-2.341-1.048-2.341-2.341c0-1.293,1.048-2.341,2.341-2.341
												s2.341,1.048,2.341,2.341C610.632,432.824,609.583,433.873,608.29,433.873z"/>
											<path style="fill:#FEFEFE;" d="M608.29,452.938c-1.293,0-2.341-1.048-2.341-2.341c0-1.293,1.048-2.341,2.341-2.341
												s2.341,1.048,2.341,2.341C610.632,451.89,609.583,452.938,608.29,452.938z"/>
										</g>
									</g>
								</g>
								<g>
									<g>
										<g>
											<path style="fill:#FEFEFE;" d="M303.269,154.425c0,1.293-1.048,2.341-2.341,2.341c-1.293,0-2.341-1.048-2.341-2.341
												c0-1.293,1.048-2.341,2.341-2.341C302.221,152.083,303.269,153.132,303.269,154.425z"/>
											<path style="fill:#FEFEFE;" d="M322.335,154.425c0,1.293-1.048,2.341-2.341,2.341c-1.293,0-2.341-1.048-2.341-2.341
												c0-1.293,1.048-2.341,2.341-2.341C321.287,152.083,322.335,153.132,322.335,154.425z"/>
											<path style="fill:#FEFEFE;" d="M341.401,154.425c0,1.293-1.048,2.341-2.341,2.341c-1.293,0-2.341-1.048-2.341-2.341
												c0-1.293,1.048-2.341,2.341-2.341C340.352,152.083,341.401,153.132,341.401,154.425z"/>
											<path style="fill:#FEFEFE;" d="M360.466,154.425c0,1.293-1.048,2.341-2.341,2.341s-2.341-1.048-2.341-2.341
												c0-1.293,1.048-2.341,2.341-2.341S360.466,153.132,360.466,154.425z"/>
											<path style="fill:#FEFEFE;" d="M379.531,154.425c0,1.293-1.048,2.341-2.341,2.341s-2.341-1.048-2.341-2.341
												c0-1.293,1.048-2.341,2.341-2.341S379.531,153.132,379.531,154.425z"/>
											<path style="fill:#FEFEFE;" d="M398.597,154.425c0,1.293-1.048,2.341-2.341,2.341c-1.293,0-2.341-1.048-2.341-2.341
												c0-1.293,1.048-2.341,2.341-2.341C397.549,152.083,398.597,153.132,398.597,154.425z"/>
										</g>
										<g>
											<circle style="fill:#FEFEFE;" cx="310.461" cy="164.794" r="2.341"/>
											<circle style="fill:#FEFEFE;" cx="329.526" cy="164.794" r="2.341"/>
											<path style="fill:#FEFEFE;" d="M350.933,164.794c0,1.293-1.048,2.341-2.341,2.341c-1.293,0-2.341-1.048-2.341-2.341
												c0-1.293,1.048-2.341,2.341-2.341C349.885,162.452,350.933,163.501,350.933,164.794z"/>
											<circle style="fill:#FEFEFE;" cx="367.657" cy="164.794" r="2.341"/>
											<circle style="fill:#FEFEFE;" cx="386.723" cy="164.794" r="2.341"/>
											<circle style="fill:#FEFEFE;" cx="405.788" cy="164.794" r="2.341"/>
										</g>
									</g>
									<g>
										<g>
											<path style="fill:#FEFEFE;" d="M303.269,175.054c0,1.293-1.048,2.341-2.341,2.341c-1.293,0-2.341-1.048-2.341-2.341
												c0-1.293,1.048-2.341,2.341-2.341C302.221,172.713,303.269,173.761,303.269,175.054z"/>
											<path style="fill:#FEFEFE;" d="M322.335,175.054c0,1.293-1.048,2.341-2.341,2.341c-1.293,0-2.341-1.048-2.341-2.341
												c0-1.293,1.048-2.341,2.341-2.341C321.287,172.713,322.335,173.761,322.335,175.054z"/>
											<path style="fill:#FEFEFE;" d="M341.401,175.054c0,1.293-1.048,2.341-2.341,2.341c-1.293,0-2.341-1.048-2.341-2.341
												c0-1.293,1.048-2.341,2.341-2.341C340.352,172.713,341.401,173.761,341.401,175.054z"/>
											<path style="fill:#FEFEFE;" d="M360.466,175.054c0,1.293-1.048,2.341-2.341,2.341s-2.341-1.048-2.341-2.341
												c0-1.293,1.048-2.341,2.341-2.341S360.466,173.761,360.466,175.054z"/>
											<path style="fill:#FEFEFE;" d="M379.531,175.054c0,1.293-1.048,2.341-2.341,2.341s-2.341-1.048-2.341-2.341
												c0-1.293,1.048-2.341,2.341-2.341S379.531,173.761,379.531,175.054z"/>
											<path style="fill:#FEFEFE;" d="M398.597,175.054c0,1.293-1.048,2.341-2.341,2.341c-1.293,0-2.341-1.048-2.341-2.341
												c0-1.293,1.048-2.341,2.341-2.341C397.549,172.713,398.597,173.761,398.597,175.054z"/>
										</g>
										<g>
											<circle style="fill:#FEFEFE;" cx="310.461" cy="185.423" r="2.341"/>
											<circle style="fill:#FEFEFE;" cx="329.526" cy="185.423" r="2.341"/>
											<path style="fill:#FEFEFE;" d="M350.933,185.423c0,1.293-1.048,2.341-2.341,2.341c-1.293,0-2.341-1.048-2.341-2.341
												c0-1.293,1.048-2.341,2.341-2.341C349.885,183.082,350.933,184.13,350.933,185.423z"/>
											<circle style="fill:#FEFEFE;" cx="367.657" cy="185.423" r="2.341"/>
											<circle style="fill:#FEFEFE;" cx="386.723" cy="185.423" r="2.341"/>
											<circle style="fill:#FEFEFE;" cx="405.788" cy="185.423" r="2.341"/>
										</g>
									</g>
								</g>
							</g>
						</g>
					</g>
					<g>
						<g>
							<g>
								<g>
									
										<line style="fill:none;stroke:#FEFEFE;stroke-width:2.6951;stroke-linecap:round;stroke-linejoin:round;stroke-miterlimit:10;" x1="324.411" y1="41.751" x2="321.507" y2="33.246"/>
									
										<line style="fill:none;stroke:#FEFEFE;stroke-width:2.6951;stroke-linecap:round;stroke-linejoin:round;stroke-miterlimit:10;" x1="335.419" y1="43.727" x2="341.1" y2="36.764"/>
									
										<line style="fill:none;stroke:#FEFEFE;stroke-width:2.6951;stroke-linecap:round;stroke-linejoin:round;stroke-miterlimit:10;" x1="339.562" y1="54.114" x2="348.476" y2="55.254"/>
									
										<line style="fill:none;stroke:#FEFEFE;stroke-width:2.6951;stroke-linecap:round;stroke-linejoin:round;stroke-miterlimit:10;" x1="332.937" y1="63.124" x2="336.683" y2="71.292"/>
									
										<line style="fill:none;stroke:#FEFEFE;stroke-width:2.6951;stroke-linecap:round;stroke-linejoin:round;stroke-miterlimit:10;" x1="321.787" y1="62.265" x2="316.835" y2="69.764"/>
									
										<line style="fill:none;stroke:#FEFEFE;stroke-width:2.6951;stroke-linecap:round;stroke-linejoin:round;stroke-miterlimit:10;" x1="316.619" y1="52.347" x2="307.636" y2="52.109"/>
								</g>
								<g>
									
										<line style="fill:none;stroke:#FEFEFE;stroke-width:2.6951;stroke-linecap:round;stroke-linejoin:round;stroke-miterlimit:10;" x1="387.645" y1="295.811" x2="384.74" y2="287.306"/>
									
										<line style="fill:none;stroke:#FEFEFE;stroke-width:2.6951;stroke-linecap:round;stroke-linejoin:round;stroke-miterlimit:10;" x1="398.652" y1="297.787" x2="404.334" y2="290.824"/>
									
										<line style="fill:none;stroke:#FEFEFE;stroke-width:2.6951;stroke-linecap:round;stroke-linejoin:round;stroke-miterlimit:10;" x1="402.796" y1="308.174" x2="411.71" y2="309.314"/>
									
										<line style="fill:none;stroke:#FEFEFE;stroke-width:2.6951;stroke-linecap:round;stroke-linejoin:round;stroke-miterlimit:10;" x1="396.171" y1="317.184" x2="399.917" y2="325.352"/>
									
										<line style="fill:none;stroke:#FEFEFE;stroke-width:2.6951;stroke-linecap:round;stroke-linejoin:round;stroke-miterlimit:10;" x1="385.021" y1="316.325" x2="380.069" y2="323.824"/>
									
										<line style="fill:none;stroke:#FEFEFE;stroke-width:2.6951;stroke-linecap:round;stroke-linejoin:round;stroke-miterlimit:10;" x1="379.853" y1="306.407" x2="370.87" y2="306.169"/>
								</g>
							</g>
							<g>
								<g>
									<g>
										<g>
											
												<line style="fill:none;stroke:#FEFEFE;stroke-width:3.6553;stroke-linecap:round;stroke-linejoin:round;stroke-miterlimit:10;" x1="199.525" y1="163.836" x2="199.525" y2="190.262"/>
											
												<line style="fill:none;stroke:#FEFEFE;stroke-width:3.6553;stroke-linecap:round;stroke-linejoin:round;stroke-miterlimit:10;" x1="211.912" y1="177.049" x2="187.137" y2="177.049"/>
										</g>
										<g>
											
												<line style="fill:none;stroke:#FEFEFE;stroke-width:3.6553;stroke-linecap:round;stroke-linejoin:round;stroke-miterlimit:10;" x1="610.516" y1="102.958" x2="610.516" y2="129.384"/>
											
												<line style="fill:none;stroke:#FEFEFE;stroke-width:3.6553;stroke-linecap:round;stroke-linejoin:round;stroke-miterlimit:10;" x1="622.903" y1="116.171" x2="598.129" y2="116.171"/>
										</g>
										<g>
											
												<line style="fill:none;stroke:#FEFEFE;stroke-width:3.6553;stroke-linecap:round;stroke-linejoin:round;stroke-miterlimit:10;" x1="158.959" y1="412.51" x2="158.959" y2="438.936"/>
											
												<line style="fill:none;stroke:#FEFEFE;stroke-width:3.6553;stroke-linecap:round;stroke-linejoin:round;stroke-miterlimit:10;" x1="171.346" y1="425.723" x2="146.571" y2="425.723"/>
										</g>
									</g>
									<g>
										
											<ellipse transform="matrix(0.2282 -0.9736 0.9736 0.2282 -44.1061 772.0624)" style="fill:none;stroke:#FEFEFE;stroke-width:1.4358;stroke-linecap:round;stroke-linejoin:round;stroke-miterlimit:10;" cx="464.894" cy="413.849" rx="16.397" ry="16.397"/>
										
											<ellipse transform="matrix(0.7071 -0.7071 0.7071 0.7071 -145.3645 195.2191)" style="fill:none;stroke:#FEFEFE;stroke-width:1.4358;stroke-linecap:round;stroke-linejoin:round;stroke-miterlimit:10;" cx="162.968" cy="273.08" rx="16.397" ry="16.397"/>
										
											<ellipse transform="matrix(0.7071 -0.7071 0.7071 0.7071 96.8938 338.1412)" style="fill:none;stroke:#FEFEFE;stroke-width:1.4358;stroke-linecap:round;stroke-linejoin:round;stroke-miterlimit:10;" cx="456.619" cy="52.109" rx="16.397" ry="16.397"/>
									</g>
								</g>
								<g>
									<circle style="fill:#FFFFFF;" cx="262.526" cy="85" r="4.683"/>
								</g>
							</g>
						</g>
						<g>
							<g>
								
									<line style="fill:none;stroke:#FEFEFE;stroke-width:2.6951;stroke-linecap:round;stroke-linejoin:round;stroke-miterlimit:10;" x1="1595.589" y1="438.249" x2="1598.494" y2="446.754"/>
								
									<line style="fill:none;stroke:#FEFEFE;stroke-width:2.6951;stroke-linecap:round;stroke-linejoin:round;stroke-miterlimit:10;" x1="1584.581" y1="436.273" x2="1578.9" y2="443.236"/>
								
									<line style="fill:none;stroke:#FEFEFE;stroke-width:2.6951;stroke-linecap:round;stroke-linejoin:round;stroke-miterlimit:10;" x1="1580.438" y1="425.886" x2="1571.524" y2="424.746"/>
								
									<line style="fill:none;stroke:#FEFEFE;stroke-width:2.6951;stroke-linecap:round;stroke-linejoin:round;stroke-miterlimit:10;" x1="1587.063" y1="416.876" x2="1583.317" y2="408.708"/>
								
									<line style="fill:none;stroke:#FEFEFE;stroke-width:2.6951;stroke-linecap:round;stroke-linejoin:round;stroke-miterlimit:10;" x1="1598.213" y1="417.735" x2="1603.165" y2="410.236"/>
								
									<line style="fill:none;stroke:#FEFEFE;stroke-width:2.6951;stroke-linecap:round;stroke-linejoin:round;stroke-miterlimit:10;" x1="1603.381" y1="427.653" x2="1612.364" y2="427.891"/>
							</g>
							<g>
								
									<line style="fill:none;stroke:#FEFEFE;stroke-width:2.6951;stroke-linecap:round;stroke-linejoin:round;stroke-miterlimit:10;" x1="1532.355" y1="184.189" x2="1535.26" y2="192.693"/>
								
									<line style="fill:none;stroke:#FEFEFE;stroke-width:2.6951;stroke-linecap:round;stroke-linejoin:round;stroke-miterlimit:10;" x1="1521.348" y1="182.213" x2="1515.666" y2="189.176"/>
								
									<line style="fill:none;stroke:#FEFEFE;stroke-width:2.6951;stroke-linecap:round;stroke-linejoin:round;stroke-miterlimit:10;" x1="1517.204" y1="171.826" x2="1508.29" y2="170.686"/>
								
									<line style="fill:none;stroke:#FEFEFE;stroke-width:2.6951;stroke-linecap:round;stroke-linejoin:round;stroke-miterlimit:10;" x1="1523.829" y1="162.816" x2="1520.083" y2="154.648"/>
								
									<line style="fill:none;stroke:#FEFEFE;stroke-width:2.6951;stroke-linecap:round;stroke-linejoin:round;stroke-miterlimit:10;" x1="1534.979" y1="163.675" x2="1539.932" y2="156.176"/>
								
									<line style="fill:none;stroke:#FEFEFE;stroke-width:2.6951;stroke-linecap:round;stroke-linejoin:round;stroke-miterlimit:10;" x1="1540.147" y1="173.593" x2="1549.13" y2="173.831"/>
							</g>
							<g>
								
									<line style="fill:none;stroke:#FEFEFE;stroke-width:2.6951;stroke-linecap:round;stroke-linejoin:round;stroke-miterlimit:10;" x1="941.715" y1="65.773" x2="944.62" y2="74.277"/>
								
									<line style="fill:none;stroke:#FEFEFE;stroke-width:2.6951;stroke-linecap:round;stroke-linejoin:round;stroke-miterlimit:10;" x1="930.707" y1="63.797" x2="925.026" y2="70.759"/>
								
									<line style="fill:none;stroke:#FEFEFE;stroke-width:2.6951;stroke-linecap:round;stroke-linejoin:round;stroke-miterlimit:10;" x1="926.564" y1="53.41" x2="917.65" y2="52.269"/>
								
									<line style="fill:none;stroke:#FEFEFE;stroke-width:2.6951;stroke-linecap:round;stroke-linejoin:round;stroke-miterlimit:10;" x1="933.189" y1="44.4" x2="929.443" y2="36.231"/>
								
									<line style="fill:none;stroke:#FEFEFE;stroke-width:2.6951;stroke-linecap:round;stroke-linejoin:round;stroke-miterlimit:10;" x1="944.339" y1="45.259" x2="949.292" y2="37.76"/>
								
									<line style="fill:none;stroke:#FEFEFE;stroke-width:2.6951;stroke-linecap:round;stroke-linejoin:round;stroke-miterlimit:10;" x1="949.507" y1="55.176" x2="958.49" y2="55.414"/>
							</g>
							<g>
								<g>
									<g>
										<g>
											
												<line style="fill:none;stroke:#FEFEFE;stroke-width:3.6553;stroke-linecap:round;stroke-linejoin:round;stroke-miterlimit:10;" x1="1720.475" y1="316.164" x2="1720.475" y2="289.738"/>
											
												<line style="fill:none;stroke:#FEFEFE;stroke-width:3.6553;stroke-linecap:round;stroke-linejoin:round;stroke-miterlimit:10;" x1="1708.088" y1="302.951" x2="1732.863" y2="302.951"/>
										</g>
										<g>
											
												<line style="fill:none;stroke:#FEFEFE;stroke-width:3.6553;stroke-linecap:round;stroke-linejoin:round;stroke-miterlimit:10;" x1="1309.484" y1="377.042" x2="1309.484" y2="350.616"/>
											
												<line style="fill:none;stroke:#FEFEFE;stroke-width:3.6553;stroke-linecap:round;stroke-linejoin:round;stroke-miterlimit:10;" x1="1297.097" y1="363.829" x2="1321.871" y2="363.829"/>
										</g>
										<g>
											
												<line style="fill:none;stroke:#FEFEFE;stroke-width:3.6553;stroke-linecap:round;stroke-linejoin:round;stroke-miterlimit:10;" x1="1761.041" y1="67.49" x2="1761.041" y2="41.063"/>
											
												<line style="fill:none;stroke:#FEFEFE;stroke-width:3.6553;stroke-linecap:round;stroke-linejoin:round;stroke-miterlimit:10;" x1="1748.654" y1="54.277" x2="1773.429" y2="54.277"/>
										</g>
									</g>
									<g>
										
											<ellipse transform="matrix(0.2298 -0.9732 0.9732 0.2298 1056.411 1467.1332)" style="fill:none;stroke:#FEFEFE;stroke-width:1.4358;stroke-linecap:round;stroke-linejoin:round;stroke-miterlimit:10;" cx="1455.106" cy="66.151" rx="16.397" ry="16.397"/>
										
											<ellipse transform="matrix(0.7071 -0.7071 0.7071 0.7071 368.3082 1303.0146)" style="fill:none;stroke:#FEFEFE;stroke-width:1.4358;stroke-linecap:round;stroke-linejoin:round;stroke-miterlimit:10;" cx="1757.032" cy="206.92" rx="16.397" ry="16.397"/>
										
											<ellipse transform="matrix(0.7071 -0.7071 0.7071 0.7071 126.0499 1160.0925)" style="fill:none;stroke:#FEFEFE;stroke-width:1.4358;stroke-linecap:round;stroke-linejoin:round;stroke-miterlimit:10;" cx="1463.38" cy="427.891" rx="16.397" ry="16.397"/>
									</g>
								</g>
								<g>
									<path style="fill:#FFFFFF;" d="M1421.374,92.24c0-2.586,2.096-4.683,4.683-4.683c2.586,0,4.683,2.096,4.683,4.683
										c0,2.586-2.097,4.683-4.683,4.683C1423.47,96.923,1421.374,94.827,1421.374,92.24z"/>
									<circle style="fill:#FFFFFF;" cx="1657.474" cy="395" r="4.683"/>
									<path style="fill:#FFFFFF;" d="M1074.803,74.726c0-2.586,2.097-4.683,4.683-4.683c2.586,0,4.683,2.096,4.683,4.683
										c0,2.586-2.096,4.683-4.683,4.683C1076.899,79.408,1074.803,77.312,1074.803,74.726z"/>
									<path style="fill:#FFFFFF;" d="M1114.613,392.442c0-2.586,2.097-4.683,4.683-4.683s4.683,2.097,4.683,4.683
										c0,2.586-2.097,4.683-4.683,4.683S1114.613,395.029,1114.613,392.442z"/>
									<path style="fill:none;stroke:#FFFFFF;stroke-width:2.0305;stroke-miterlimit:10;" d="M746.3,397.125
										c0-2.586,2.097-4.683,4.683-4.683c2.586,0,4.683,2.096,4.683,4.683c0,2.586-2.096,4.683-4.683,4.683
										C748.396,401.808,746.3,399.711,746.3,397.125z"/>
									<path style="fill:none;stroke:#FFFFFF;stroke-width:2.0305;stroke-miterlimit:10;" d="M709.283,49.754
										c0-2.586,2.096-4.683,4.683-4.683c2.586,0,4.683,2.097,4.683,4.683c0,2.586-2.096,4.683-4.683,4.683
										C711.38,54.437,709.283,52.34,709.283,49.754z"/>
								</g>
							</g>
						</g>
					</g>
				</g>
			</g>
		</g>
	</g>
</g>
<g id="TEXTS">
	<g>
		<g>
			<g>
				<path style="fill-rule:evenodd;clip-rule:evenodd;fill:#FFFFFF;" d="M921.447,413.65c0,9.006-7.301,16.307-16.306,16.307
					c-9.006,0-16.307-7.301-16.307-16.307c0-9.006,7.301-16.306,16.307-16.306C914.146,397.344,921.447,404.644,921.447,413.65z"/>
				<g>
					<g>
						
							<linearGradient id="SVGID_00000096041583926936634250000010009054667648916404_" gradientUnits="userSpaceOnUse" x1="895.1598" y1="413.6502" x2="915.1214" y2="413.6502">
							<stop  offset="0.2151" style="stop-color:#2E0061"/>
							<stop  offset="0.6769" style="stop-color:#292D52"/>
						</linearGradient>
						<path style="fill:url(#SVGID_00000096041583926936634250000010009054667648916404_);" d="M909.44,423.631h-8.599
							c-3.133,0-5.681-2.549-5.681-5.681v-8.599c0-3.133,2.549-5.681,5.681-5.681h8.599c3.133,0,5.681,2.548,5.681,5.681v8.599
							C915.121,421.082,912.573,423.631,909.44,423.631z M900.841,405.38c-2.189,0-3.97,1.781-3.97,3.97v8.599
							c0,2.189,1.781,3.97,3.97,3.97h8.599c2.189,0,3.971-1.781,3.971-3.97v-8.599c0-2.19-1.781-3.97-3.971-3.97H900.841z"/>
					</g>
					<g>
						<g>
							
								<linearGradient id="SVGID_00000032636354447953642340000007102105960584629925_" gradientUnits="userSpaceOnUse" x1="900.0294" y1="413.6502" x2="910.2519" y2="413.6502">
								<stop  offset="0.2151" style="stop-color:#2E0061"/>
								<stop  offset="0.6769" style="stop-color:#292D52"/>
							</linearGradient>
							<path style="fill:url(#SVGID_00000032636354447953642340000007102105960584629925_);" d="M905.141,418.761
								c-2.819,0-5.111-2.293-5.111-5.112c0-2.818,2.293-5.111,5.111-5.111c2.818,0,5.111,2.293,5.111,5.111
								C910.252,416.469,907.959,418.761,905.141,418.761z M905.141,410.25c-1.874,0-3.4,1.525-3.4,3.4
								c0,1.875,1.526,3.401,3.4,3.401c1.875,0,3.4-1.525,3.4-3.401C908.541,411.775,907.016,410.25,905.141,410.25z"/>
						</g>
					</g>
				</g>
			</g>
			<g>
				
					<ellipse transform="matrix(0.0318 -0.9995 0.9995 0.0318 516.0862 1359.9382)" style="fill-rule:evenodd;clip-rule:evenodd;fill:#FFFFFF;" cx="959.999" cy="413.582" rx="16.307" ry="16.306"/>
				
					<linearGradient id="SVGID_00000041275837053175018200000016571723573648253109_" gradientUnits="userSpaceOnUse" x1="955.8787" y1="413.582" x2="964.1181" y2="413.582">
					<stop  offset="0.2151" style="stop-color:#2E0061"/>
					<stop  offset="0.6769" style="stop-color:#292D52"/>
				</linearGradient>
				<path style="fill-rule:evenodd;clip-rule:evenodd;fill:url(#SVGID_00000041275837053175018200000016571723573648253109_);" d="
					M961.313,410.053v-1.418c0-0.679,0.458-0.842,0.783-0.842c0.31,0,1.978,0,1.978,0v-3.027h-2.731
					c-3.027,0-3.706,2.245-3.706,3.692v1.594h-1.758v2.126v1.403h1.773c0,4.002,0,8.815,0,8.815h3.529c0,0,0-4.873,0-8.815h2.613
					l0.118-1.388l0.207-2.141H961.313z"/>
			</g>
			<g>
				<path style="fill-rule:evenodd;clip-rule:evenodd;fill:#FFFFFF;" d="M1001.472,404.199c5.145-7.392,15.307-9.214,22.699-4.07
					c7.392,5.144,9.214,15.307,4.07,22.699c-5.144,7.391-15.307,9.213-22.699,4.069
					C998.15,421.754,996.329,411.591,1001.472,404.199z"/>
				
					<linearGradient id="SVGID_00000017508636358076606570000014645517404175280512_" gradientUnits="userSpaceOnUse" x1="1008.103" y1="413.5139" x2="1021.6112" y2="413.5139">
					<stop  offset="0.2151" style="stop-color:#2E0061"/>
					<stop  offset="0.6769" style="stop-color:#292D52"/>
				</linearGradient>
				<path style="fill:url(#SVGID_00000017508636358076606570000014645517404175280512_);" d="M1020.375,401.47h-11.03
					c-0.684,0-1.242,0.552-1.242,1.236v21.609c0,0.688,0.559,1.242,1.242,1.242h11.03c0.687,0,1.236-0.554,1.236-1.242v-21.609
					C1021.611,402.022,1021.062,401.47,1020.375,401.47z M1014.781,424.925c-0.708,0-1.282-0.576-1.282-1.287
					c0-0.71,0.574-1.279,1.282-1.279c0.712,0,1.285,0.569,1.285,1.279C1016.066,424.349,1015.494,424.925,1014.781,424.925z
					 M1020.128,420.691c0,0.536-0.431,0.97-0.972,0.97h-8.598c-0.538,0-0.966-0.434-0.966-0.97v-16.846
					c0-0.534,0.427-0.97,0.966-0.97h8.598c0.54,0,0.972,0.436,0.972,0.97V420.691z"/>
			</g>
		</g>
		<g>
			<g>
				
					<text transform="matrix(1 0 0 1 773.7129 183.0254)" style="fill:#FFFFFF; font-family:'Quicksand-Regular'; font-size:58.5076px;">NEW SEASON</text>
			</g>
			<g>
				<text transform="matrix(1 0 0 1 701.4731 254.7764)"><tspan x="0" y="0" style="fill:#FFFFFF; font-family:'Aleo-Bold'; font-size:59.7066px; letter-spacing:2;">SHOPPING </tspan><tspan x="304.68" y="0" style="fill:#FFFFFF; font-family:'Aleo-Regular'; font-size:59.7066px; letter-spacing:2;">CENTER</tspan></text>
			</g>
			<g>
				
					<linearGradient id="SVGID_00000059276540337223860400000016244211678664253373_" gradientUnits="userSpaceOnUse" x1="840.5132" y1="312.1543" x2="1079.4857" y2="312.1543">
					<stop  offset="0" style="stop-color:#FF8201"/>
					<stop  offset="0.4973" style="stop-color:#FF9800"/>
					<stop  offset="1" style="stop-color:#FFBF03"/>
				</linearGradient>
				<path style="fill:url(#SVGID_00000059276540337223860400000016244211678664253373_);" d="M1052.683,338.957H867.316
					c-14.803,0-26.803-12-26.803-26.803l0,0c0-14.803,12-26.803,26.803-26.803h185.367c14.803,0,26.803,12,26.803,26.803l0,0
					C1079.486,326.957,1067.486,338.957,1052.683,338.957z"/>
				<g>
					<g>
						
							<text transform="matrix(1 0 0 1 882.7783 321.416)" style="fill:#320063; font-family:'Quicksand-Regular'; font-size:28.723px;">SHOP NOW</text>
					</g>
				</g>
			</g>
		</g>
	</g>
</g>
</svg>
