<svg xmlns="http://www.w3.org/2000/svg" version="1.1" xmlns:xlink="http://www.w3.org/1999/xlink" xmlns:svgjs="http://svgjs.dev/svgjs" width="1000" height="393" viewBox="0 0 1000 393"><g transform="matrix(1,0,0,1,-0.6060606060606233,-0.5782840448591173)"><svg viewBox="0 0 396 156" data-background-color="#ffffff" preserveAspectRatio="xMidYMid meet" height="393" width="1000" xmlns="http://www.w3.org/2000/svg" xmlns:xlink="http://www.w3.org/1999/xlink"><g id="tight-bounds" transform="matrix(1,0,0,1,0.2400000000000091,0.22954786513491854)"><svg viewBox="0 0 395.52 155.54090426973016" height="155.54090426973016" width="395.52"><g><svg viewBox="0 0 395.52 155.54090426973016" height="155.54090426973016" width="395.52"><g transform="matrix(1,0,0,1,0,102.07262544801857)"><svg viewBox="0 0 395.52 53.46827882171159" height="53.46827882171159" width="395.52"><g id="textblocktransform"><svg viewBox="0 0 395.52 53.46827882171159" height="53.46827882171159" width="395.52" id="textblock"><g><svg viewBox="0 0 395.52 53.46827882171159" height="53.46827882171159" width="395.52"><g transform="matrix(1,0,0,1,0,0)"><svg width="395.52" viewBox="0.10238493978977203 -33.090484619140625 330.13787841796875 44.62959671020508" height="53.46827882171159" data-palette-color="#fa0606"><path d="M12.342-24.205v0c1.745-0.177 3.678-0.292 5.8-0.347 2.121-0.061 4.202 0.101 6.243 0.486v0l0.127 6.069c-1.447 0.141-3.211 0.323-5.292 0.547-2.089 0.218-4.133 0.448-6.132 0.689v0c-0.748 0.09-1.374 0.189-1.878 0.297-0.504 0.108-0.902 0.257-1.195 0.446-0.294 0.183-0.49 0.422-0.589 0.715-0.099 0.294-0.119 0.686-0.059 1.176v0c0.095 0.788 0.405 1.358 0.931 1.711 0.526 0.353 1.42 0.668 2.683 0.946v0l6.628 1.598c2.884 0.754 4.971 1.858 6.262 3.314 1.29 1.456 2.087 3.445 2.391 5.967v0c0.229 1.9 0.191 3.536-0.113 4.909-0.299 1.366-0.919 2.485-1.862 3.357-0.942 0.879-2.234 1.602-3.878 2.169-1.645 0.561-3.711 0.991-6.2 1.292v0c-1.152 0.139-2.842 0.262-5.072 0.369-2.231 0.101-4.781-0.025-7.65-0.377v0l-0.247-6.557c1.976-0.205 3.729-0.372 5.258-0.503 1.528-0.137 2.859-0.267 3.992-0.391 1.134-0.117 2.029-0.214 2.684-0.293v0c1.112-0.134 1.956-0.293 2.531-0.477 0.575-0.19 0.959-0.455 1.154-0.793 0.194-0.339 0.256-0.803 0.184-1.392v0c-0.067-0.556-0.203-0.989-0.408-1.301-0.205-0.304-0.526-0.548-0.965-0.73-0.438-0.182-1.015-0.344-1.73-0.486v0l-7.108-1.893c-2.821-0.788-4.881-1.886-6.179-3.294-1.304-1.401-2.106-3.349-2.406-5.844v0c-0.237-1.966-0.182-3.601 0.164-4.905 0.34-1.303 0.982-2.378 1.928-3.224 0.946-0.846 2.25-1.527 3.914-2.043 1.67-0.517 3.7-0.919 6.089-1.207zM39.632-26.429l8.533-0.802c0.757-0.071 1.441 0.082 2.052 0.46 0.617 0.371 1.061 0.925 1.331 1.662v0l12.29 30.725-9.468 0.89-8.17-22.906c-0.185-0.545-0.358-1.135-0.518-1.769-0.159-0.628-0.316-1.219-0.468-1.774v0l-1.324 0.124c-0.013 0.57-0.05 1.18-0.11 1.829-0.052 0.654-0.119 1.267-0.199 1.836v0l-3.757 24.027-9.468 0.891 6.348-32.477c0.128-0.775 0.461-1.403 0.998-1.882 0.53-0.485 1.174-0.763 1.93-0.834zM36.765-6.714l17.891-1.682 0.626 6.66-17.891 1.682zM85.529-30.131l8.549-0.59 2.13 30.826c0.15 2.175-0.845 3.336-2.987 3.485v0l-4.15 0.286c-0.991 0.068-1.738-0.11-2.243-0.537-0.511-0.432-1.046-1.074-1.606-1.923v0l-9.344-13.95c-0.456-0.797-0.913-1.661-1.371-2.591-0.465-0.923-0.86-1.855-1.186-2.795v0l-0.449 0.031c0.199 0.949 0.373 1.922 0.523 2.921 0.156 0.998 0.265 1.956 0.329 2.874v0l1.17 16.949-8.649 0.598-2.129-30.827c-0.15-2.175 0.862-3.337 3.036-3.487v0l4.101-0.283c0.991-0.068 1.732 0.114 2.223 0.548 0.491 0.427 1.029 1.068 1.616 1.923v0l8.977 13.423c0.514 0.76 1.016 1.6 1.507 2.522 0.498 0.928 0.98 1.904 1.445 2.928v0l0.449-0.031c-0.17-1.011-0.323-2.009-0.457-2.996-0.135-0.98-0.236-1.965-0.305-2.956v0zM108.198-31.307l9.302-0.381 1.398 34.142-9.302 0.381zM98.296-30.901l29.046-1.19 0.289 7.074-29.045 1.19zM145.436-33.085v0c2.84-0.047 5.237 0.193 7.193 0.721 1.956 0.527 3.558 1.451 4.807 2.77 1.242 1.313 2.145 3.105 2.71 5.376 0.565 2.271 0.876 5.156 0.934 8.655v0c0.058 3.466-0.158 6.35-0.646 8.652-0.488 2.302-1.331 4.129-2.529 5.483-1.204 1.36-2.775 2.337-4.712 2.929-1.937 0.592-4.325 0.912-7.165 0.959v0c-2.806 0.047-5.194-0.194-7.163-0.72-1.976-0.527-3.585-1.45-4.826-2.77-1.242-1.313-2.149-3.111-2.721-5.396-0.565-2.284-0.876-5.159-0.933-8.625v0c-0.058-3.5 0.157-6.394 0.645-8.682 0.495-2.289 1.342-4.11 2.539-5.463 1.198-1.36 2.775-2.337 4.732-2.93 1.95-0.593 4.329-0.912 7.135-0.959zM145.554-26.006v0c-1.453 0.024-2.578 0.34-3.374 0.947-0.797 0.607-1.349 1.689-1.657 3.248-0.301 1.559-0.427 3.758-0.38 6.597v0c0.047 2.833 0.247 5.023 0.6 6.571 0.359 1.548 0.947 2.611 1.763 3.191 0.816 0.58 1.951 0.858 3.404 0.833v0c1.453-0.024 2.578-0.34 3.375-0.946 0.803-0.607 1.349-1.689 1.636-3.248 0.287-1.558 0.408-3.754 0.361-6.587v0c-0.047-2.84-0.241-5.033-0.58-6.581-0.339-1.548-0.92-2.612-1.743-3.191-0.816-0.58-1.951-0.858-3.405-0.834zM189.176-33.032v0c1.752 0.063 3.684 0.213 5.793 0.45 2.11 0.23 4.149 0.675 6.118 1.335v0l-0.703 6.029c-1.453-0.058-3.225-0.119-5.318-0.182-2.099-0.069-4.155-0.121-6.168-0.156v0c-0.753-0.013-1.387 0-1.901 0.038-0.514 0.038-0.929 0.131-1.245 0.278-0.316 0.141-0.543 0.351-0.681 0.629-0.138 0.278-0.211 0.663-0.22 1.156v0c-0.014 0.793 0.216 1.401 0.689 1.822 0.473 0.422 1.315 0.856 2.528 1.304v0l6.348 2.489c2.754 1.141 4.671 2.521 5.75 4.14 1.079 1.619 1.597 3.698 1.553 6.237v0c-0.033 1.913-0.294 3.529-0.783 4.847-0.483 1.312-1.25 2.336-2.303 3.071-1.053 0.742-2.432 1.282-4.139 1.62-1.706 0.331-3.812 0.475-6.318 0.431v0c-1.16-0.02-2.852-0.129-5.075-0.327-2.223-0.205-4.732-0.678-7.527-1.419v0l0.652-6.53c1.986 0.067 3.745 0.141 5.277 0.22 1.532 0.073 2.868 0.126 4.008 0.159 1.139 0.04 2.039 0.065 2.699 0.077v0c1.12 0.019 1.977-0.023 2.573-0.126 0.595-0.11 1.012-0.319 1.251-0.629 0.239-0.309 0.363-0.761 0.373-1.354v0c0.01-0.56-0.066-1.008-0.227-1.344-0.161-0.329-0.446-0.614-0.855-0.855-0.409-0.24-0.959-0.48-1.648-0.718v0l-6.782-2.847c-2.687-1.166-4.577-2.536-5.671-4.108-1.1-1.566-1.628-3.605-1.585-6.118v0c0.034-1.98 0.312-3.592 0.833-4.836 0.515-1.245 1.298-2.221 2.351-2.93 1.052-0.709 2.438-1.205 4.156-1.489 1.725-0.284 3.791-0.405 6.197-0.364zM214.748-31.6l9.302 0.387-1.421 34.141-9.302-0.387zM204.846-32.012l29.045 1.209-0.294 7.074-29.045-1.209zM252.006-30.302v0c2.834 0.187 5.204 0.624 7.109 1.311 1.906 0.687 3.426 1.739 4.562 3.157 1.13 1.411 1.882 3.271 2.258 5.58 0.375 2.31 0.448 5.211 0.218 8.704v0c-0.228 3.459-0.681 6.316-1.357 8.569-0.676 2.254-1.667 4.006-2.973 5.256-1.312 1.256-2.958 2.1-4.937 2.53-1.979 0.431-4.386 0.552-7.22 0.366v0c-2.801-0.185-5.16-0.621-7.079-1.309-1.926-0.688-3.453-1.741-4.582-3.159-1.13-1.411-1.885-3.278-2.266-5.601-0.375-2.323-0.448-5.214-0.22-8.673v0c0.23-3.492 0.683-6.359 1.359-8.599 0.682-2.24 1.676-3.985 2.981-5.236 1.306-1.257 2.958-2.1 4.957-2.529 1.993-0.43 4.389-0.552 7.19-0.367zM251.54-23.238v0c-1.45-0.096-2.597 0.126-3.441 0.665-0.844 0.539-1.483 1.572-1.918 3.101-0.428 1.528-0.736 3.71-0.923 6.543v0c-0.186 2.827-0.168 5.027 0.056 6.598 0.23 1.572 0.728 2.68 1.494 3.326 0.766 0.645 1.874 1.016 3.324 1.111v0c1.45 0.096 2.597-0.126 3.441-0.665 0.851-0.539 1.483-1.572 1.899-3.102 0.415-1.529 0.716-3.708 0.902-6.535v0c0.187-2.834 0.175-5.036-0.035-6.606-0.21-1.571-0.702-2.679-1.475-3.324-0.766-0.645-1.874-1.016-3.324-1.112zM286.594-27.312v0c3.186 0.295 5.753 0.848 7.7 1.657 1.947 0.81 3.321 1.988 4.122 3.535 0.8 1.554 1.077 3.662 0.83 6.324v0c-0.134 1.447-0.462 2.742-0.983 3.886-0.514 1.144-1.3 2.039-2.357 2.684-1.058 0.652-2.449 0.998-4.174 1.039v0l-0.027 0.289c0.618 0.124 1.267 0.385 1.946 0.783 0.674 0.39 1.281 0.986 1.823 1.785 0.536 0.793 0.877 1.842 1.024 3.148v0l1.835 10.766-9.708-0.9-1.474-10.43c-0.135-1.077-0.431-1.811-0.891-2.202-0.46-0.384-1.168-0.62-2.124-0.709v0c-2.36-0.252-4.314-0.45-5.86-0.593-1.547-0.143-2.853-0.281-3.919-0.413-1.066-0.132-2.07-0.275-3.013-0.43v0l0.738-6.449 12.925 1.197c1.182 0.109 2.105 0.078 2.77-0.095 0.658-0.167 1.148-0.543 1.471-1.129 0.315-0.587 0.523-1.421 0.623-2.503v0c0.103-1.115 0.053-1.98-0.151-2.595-0.21-0.622-0.623-1.075-1.24-1.36-0.622-0.292-1.524-0.493-2.706-0.602v0c-3.253-0.301-6.009-0.54-8.269-0.716-2.253-0.175-3.795-0.268-4.624-0.278v0l-0.143-6.481c1.463-0.032 2.837-0.018 4.124 0.041 1.287 0.052 2.699 0.14 4.234 0.261 1.528 0.128 3.361 0.291 5.498 0.49zM272.738-28.104l9.071 0.84-3.152 34.025-9.071-0.841zM313.34-24.182v0c1.9 0.223 3.844 0.45 5.83 0.683 1.98 0.232 3.925 0.503 5.835 0.814 1.911 0.304 3.656 0.65 5.235 1.036v0l-1.208 6.534-12.693-1.487c-0.722-0.085-1.3 0.039-1.735 0.371-0.442 0.331-0.701 0.824-0.778 1.479v0l-1.844 15.743c-0.077 0.656 0.061 1.195 0.415 1.619 0.346 0.423 0.881 0.677 1.602 0.762v0l12.693 1.487-0.334 6.636c-1.622-0.022-3.398-0.103-5.328-0.242-1.93-0.145-3.885-0.328-5.867-0.546-1.989-0.213-3.933-0.431-5.833-0.653v0c-2.265-0.265-4.023-1.153-5.276-2.662-1.253-1.509-1.753-3.347-1.499-5.512v0l2.305-19.676c0.258-2.198 1.169-3.877 2.734-5.036 1.566-1.166 3.482-1.616 5.746-1.35zM304.286-5.247l0.732-6.247 21.493 2.517-0.732 6.248z" opacity="1" transform="matrix(1,0,0,1,0,0)" fill="#fa0606" class="wordmark-text-0" data-fill-palette-color="primary" id="text-0"></path></svg></g></svg></g></svg></g></svg></g><g transform="matrix(1,0,0,1,143.17767029282626,0)"><svg viewBox="0 0 109.16465941434745 86.51167513352935" height="86.51167513352935" width="109.16465941434745"><g><svg version="1.1" xmlns="http://www.w3.org/2000/svg" xmlns:xlink="http://www.w3.org/1999/xlink" x="0" y="0" viewBox="0.06200000271201134 10.716999053955078 99.9990005493164 79.24800109863281" enable-background="new 0.062 10.717 100 79.248" xml:space="preserve" width="109.16465941434745" height="86.51167513352935" class="icon-icon-0" data-fill-palette-color="accent" id="icon-0"><path d="M85.852 17.327c1.549-0.289 2.724-1.641 2.724-3.274 0-1.844-1.494-3.336-3.338-3.336h-70.35c-1.843 0-3.336 1.492-3.336 3.336 0 1.632 1.173 2.985 2.722 3.274L0.062 44.758v5.338c0 2.396 2.54 4.338 5.671 4.338 1.051 0 2.033-0.224 2.877-0.605v36.136h82.902V53.829c0.846 0.383 1.825 0.605 2.879 0.605 3.131 0 5.67-1.941 5.67-4.338v-5.338L85.852 17.327zM16.839 54.433c-2.986 0-5.407-1.94-5.407-4.337v-0.5h-0.027v-4.837l10.716-27.369h8.561l-8.435 27.369v5.338c0 0.001 0 0.002 0 0.002C22.245 52.492 19.825 54.433 16.839 54.433zM38.999 54.433c-2.987 0-5.408-1.94-5.408-4.337v-0.5l0 0v-4.837l4.479-27.369h8.534l-2.197 27.369v4.837 0.5C44.405 52.491 41.984 54.433 38.999 54.433zM61.154 54.433c-2.985 0-5.406-1.94-5.406-4.337v-0.5-4.837l-2.2-27.369h8.508l4.479 27.369v5.338c0 0.073 0.012 0.146 0.016 0.216C66.407 52.606 64.049 54.433 61.154 54.433zM88.692 50.096c0 2.396-2.421 4.337-5.407 4.337-2.985 0-5.406-1.94-5.406-4.337v-0.5-4.837l-8.438-27.369h8.562l10.716 27.369v4.837h-0.026V50.096L88.692 50.096z" fill="#ff4136" data-fill-palette-color="accent"></path></svg></g></svg></g><g></g></svg></g><defs></defs></svg><rect width="395.52" height="155.54090426973016" fill="none" stroke="none" visibility="hidden"></rect></g></svg></g></svg>